<svg xmlns="http://www.w3.org/2000/svg" viewBox="0 0 420 300" role="img" aria-label="架空の小型オフィスプリンターのイラスト">
  <rect width="420" height="300" fill="#f7fafd"/>
  <ellipse cx="210" cy="256" rx="138" ry="15" fill="#dce4ee"/>
  <path d="M118 72h184c18 0 32 14 32 32v36H86v-36c0-18 14-32 32-32z" fill="#ffffff" stroke="#9fb0c3" stroke-width="5"/>
  <path d="M118 126h184c28 0 50 22 50 50v58H68v-58c0-28 22-50 50-50z" fill="#eef4f9" stroke="#8799ad" stroke-width="5"/>
  <rect x="108" y="164" width="204" height="28" rx="5" fill="#dfe7f0" stroke="#9fb0c3" stroke-width="4"/>
  <path d="M132 178h136" stroke="#aab8c8" stroke-width="5" stroke-linecap="round"/>
  <rect x="114" y="204" width="192" height="36" rx="4" fill="#ffffff" stroke="#9fb0c3" stroke-width="4"/>
  <path d="M144 222h132" stroke="#c4cfdb" stroke-width="5" stroke-linecap="round"/>
  <rect x="270" y="96" width="42" height="18" rx="4" fill="#1f6fb2"/>
  <circle cx="324" cy="105" r="6" fill="#55b87b"/>
</svg>
